<?xml version="1.0" standalone="no"?>
<!DOCTYPE svg PUBLIC "-//W3C//DTD SVG 20010904//EN"
 "http://www.w3.org/TR/2001/REC-SVG-20010904/DTD/svg10.dtd">
<svg version="1.0" xmlns="http://www.w3.org/2000/svg"
 width="183.000000pt" height="183.000000pt" viewBox="0 0 183.000000 183.000000"
 preserveAspectRatio="xMidYMid meet">

<g transform="translate(0.000000,183.000000) scale(0.100000,-0.100000)"
fill="#000000" stroke="none">
<path d="M1010 1330 c-42 -42 -11 -113 50 -113 36 0 70 31 70 65 0 27 -45 68
-75 68 -14 0 -34 -9 -45 -20z"/>
<path d="M680 1244 c0 -3 5 -14 10 -25 9 -16 7 -21 -15 -29 -34 -13 -32 -53 4
-58 22 -4 22 -5 -11 -27 -134 -91 -47 -295 111 -260 72 16 121 94 107 168 -6
35 -42 80 -81 104 -17 10 -6 12 62 12 l83 1 2 -316 c3 -289 5 -318 21 -328 12
-8 22 -8 35 0 15 10 18 34 22 185 4 146 7 174 20 174 13 0 16 -29 21 -180 3
-99 6 -181 7 -182 6 -8 50 -1 60 9 9 9 12 90 12 305 0 258 2 293 16 293 13 0
15 -17 13 -117 -1 -123 6 -145 45 -130 14 5 16 25 16 137 0 138 -10 179 -49
200 -12 6 -99 10 -211 10 l-192 0 7 30 7 30 -61 0 c-34 0 -61 -3 -61 -6z m88
-31 c-5 -26 -35 -28 -48 -4 -10 19 -8 21 20 21 25 0 31 -4 28 -17z m55 -143
c40 -35 51 -76 34 -127 -14 -45 -66 -83 -112 -83 -70 0 -133 78 -119 148 18
88 128 123 197 62z"/>
<path d="M717 1058 c-33 -24 -36 -64 -7 -73 11 -3 20 -15 20 -26 0 -12 -7 -19
-20 -19 -28 0 -25 -12 8 -31 27 -15 30 -15 55 3 34 25 34 53 2 74 -30 20 -33
44 -5 44 11 0 20 5 20 10 0 6 -4 10 -9 10 -5 0 -16 6 -23 14 -12 11 -18 11
-41 -6z m53 -108 c0 -5 -4 -10 -10 -10 -5 0 -10 5 -10 10 0 6 5 10 10 10 6 0
10 -4 10 -10z"/>
</g>
</svg>
